<?xml version="1.0" encoding="utf-8"?>
<!-- Generator: Adobe Illustrator 12.0.0, SVG Export Plug-In . SVG Version: 6.00 Build 51448)  -->
<!DOCTYPE svg PUBLIC "-//W3C//DTD SVG 1.1//EN" "http://www.w3.org/Graphics/SVG/1.1/DTD/svg11.dtd" [
	<!ENTITY ns_svg "http://www.w3.org/2000/svg">
	<!ENTITY ns_xlink "http://www.w3.org/1999/xlink">
]>
<svg  version="1.1" xmlns="&ns_svg;" xmlns:xlink="&ns_xlink;" width="221.5" height="92.4" viewBox="0 0 221.5 92.4"
	 overflow="visible" enable-background="new 0 0 221.5 92.4" xml:space="preserve">
<g id="Ebene_1">
	<path fill-rule="evenodd" clip-rule="evenodd" fill="#E10026" d="M30.2,35.6c-0.3,0.1-0.6,0.2-1,0.3c-3.6,1.3-7.4,1.9-11.2,1.9
		c-5.3,0-7.2-0.9-10-2.8c-4.4-2.9-6.4-6.8-6.1-11.7c0.2-3.7,1.7-7.1,4.4-10.3C9,9.7,12.8,7.1,17.6,5.1C22.4,3,25.4,2,30.7,2
		c4.5,0,7.9,0.8,10.3,2.5c2.4,1.7,3.5,3.7,3.3,6c-0.1,1.6-0.6,3.1-1.6,4.3c-1.3,1.6-3,3-5.2,4.1c-2.2,1.1-5.4,2-9.7,2.8
		c-4.3,0.7-8.8,1.1-13.6,1.1l-0.1,0.9c-0.1,1.9,0.5,3.4,1.9,4.7c1.4,1.2,3.3,1.8,5.6,1.8c1.9,0,4.1-0.4,6.4-1.3
		c0.6-0.2,1.2-0.5,1.8-0.7c-0.5,1.1-0.8,2.3-0.8,3.5C29.2,33.1,29.5,34.4,30.2,35.6L30.2,35.6z M16.3,16.8c4.3-0.2,7.6-0.6,10-1.2
		c2.4-0.6,4.1-1.4,5.1-2.3c0.8-0.7,1.2-1.4,1.3-2.2c0-0.7-0.3-1.3-0.9-1.8c-0.7-0.5-1.5-0.8-2.7-0.8c-1.4,0-2.9,0.3-4.5,1
		c-1.7,0.6-3.2,1.5-4.5,2.7C18.6,13.4,17.4,14.9,16.3,16.8L16.3,16.8z"/>
	<path fill-rule="evenodd" clip-rule="evenodd" fill="#666666" d="M85.9,12.3c0.5-7.4-2.2-11-7.7-11C67.9,1.4,66,6.6,66,6.6
		c0.6-1.4-0.2-2.3-0.7-2.9c-0.8-0.9-2.5-1.4-4.3-1.5l-3.7,0c-0.9,4.2-2.9,12.2-4,16.5l-8.9,34.5h4.2c0,0,3.1,0.2,5.1-1.8
		c2-2,3.2-6.3,3.2-6.3l2-7.8c1.2,0.2,2.1,0.2,3,0.2C76.9,37.4,85,25.6,85.9,12.3L85.9,12.3z M75,14.4c-0.4,6.4-4.4,14.8-10.9,14.8
		c-1.1,0-2.3-0.2-3.2-0.6l0.5-1.8c1.7-6.5,4.2-17,11.8-16.3C74.9,10.7,75.2,11.7,75,14.4L75,14.4z"/>
	<path fill-rule="evenodd" clip-rule="evenodd" fill="#666666" d="M125,2.6c-4.3-0.8-8.8-1.2-13.1-1.2c-15.2,0-23.3,11.9-24.2,25.2
		c-0.5,7.4,2.2,11,7.7,11c5.9,0,11.9-4.5,11.9-4.5l-1,3.7c0,0,2.4,0.2,3.8,0c2.2-0.3,3.5-0.7,5.2-2.1c1.9-1.6,2.4-3,3-5.8
		C120.1,21.2,122.4,12.4,125,2.6L125,2.6z M112.6,10.2l-0.5,1.9c-1.7,6.6-4.8,16.4-11.8,16.3c-1.4,0-1.9-1.2-1.8-3.8
		C99,18.2,103,9.8,109.4,9.8C110.8,9.8,111.7,10,112.6,10.2L112.6,10.2z"/>
	<path fill-rule="evenodd" clip-rule="evenodd" fill="#666666" d="M162.3,2.6c-4.3-0.8-8.3-1.2-12.6-1.2
		c-15.2,0-23.3,11.9-24.2,25.2c-0.5,7.4,2.2,11,7.7,11c5.9,0,11.6-3.1,11.6-3.1c-0.8,3-1.1,3.7-1.1,3.7c-1.4,5.1-5.1,6.8-11.2,6.8
		c-3.1,0-6.8-0.7-9.5-2.2c0,0-0.8,2.8-0.4,4.6c0.5,1.9,1.6,2.8,3.1,4c3,2.3,8.1,1.9,9.4,1.8c10.9-1,15.3-5.7,17.7-14.8L162.3,2.6
		L162.3,2.6z M150.5,9.5l-0.5,2.5c-1.7,6.6-4.1,16.4-11.8,16.3c-1.4,0-1.9-1.2-1.8-3.8c0.4-6.4,4.4-15.4,10.9-15.4
		C148.7,9.1,149.6,9.3,150.5,9.5L150.5,9.5z"/>
	<path fill-rule="evenodd" clip-rule="evenodd" fill="#666666" d="M196.1,10.3c0.3-4.2-1.8-8.8-11.3-8.8c-10.2,0-20.5,8.9-21.5,24
		c-0.5,7.5,2.5,12,11.8,12c2.2,0,9-0.3,12-3.1c1.3-1.2,1.6-2.2,2-3.9c0.3-1.3,0.2-3.4,0.2-3.4c-3.4,1.3-7.1,2.1-10.4,2.1
		c-4.4,0-5.5-1-5.3-4c0-0.5,0.1-1.3,0.2-1.8C186.8,23,195.5,19.1,196.1,10.3L196.1,10.3z M185.9,11.6c-0.2,3.4-4.1,4.8-10.4,4.9
		c1.3-3.7,3.9-7.4,7.7-7.4C185,9.2,186,10.1,185.9,11.6L185.9,11.6z"/>
	<path fill="#666666" d="M221,4.6c-0.6-2-2.2-3.2-4.3-3.2c-10.5,0-15.9,5.1-16.4,11.7c-0.5,8.1,7.2,9.2,7,13.2
		c-0.1,1.8-1.9,2.8-4.8,2.8c-1.6,0-3.5-0.4-5-1c0,0-1.3,2.5-1.1,4.2c0.1,1.3,0.3,2.1,1,3.1c1.3,1.7,4.7,2,5.1,1.9
		c10.4-0.5,15.5-6.5,15.9-12.1c0.5-7.4-7.4-9.9-7.2-13.3c0.1-1.7,1.6-2.9,4.6-2.9c1.4,0,2.8,0.2,4.2,0.6c0,0,0.9-1.6,1.1-2.8
		C221.3,6.1,221.3,5.5,221,4.6L221,4.6z"/>
	<path fill="#E10026" d="M32.2,31.6c0-3,2.5-5.5,5.5-5.5c3,0,5.5,2.5,5.5,5.5s-2.5,5.5-5.5,5.5C34.6,37.1,32.2,34.7,32.2,31.6
		L32.2,31.6z"/>
</g>
<g id="Ebene_2">
	<g>
		<path fill="#484949" d="M98.9,75.4c-0.2,1.1-0.4,2-0.5,2.8c-0.1,0.7-0.1,1.4-0.1,1.9s0,0.9,0.1,1.2c0.1,0.3,0.2,0.6,0.3,0.8
			L94.8,83c-0.5-0.6-0.8-1.5-0.8-2.6V80c-1.6,2-3.7,3-6.1,3c-2.1,0-3.6-0.6-4.6-1.8s-1.5-3-1.5-5.3c0-2.1,0.4-4.1,1.2-6.2
			c0.8-2,1.9-3.8,3.3-5.2c1-1,2.1-1.7,3.3-2.2c1.2-0.5,2.4-0.7,3.6-0.7c0.9,0,1.7,0.1,2.4,0.2s1.2,0.3,1.5,0.5c0-0.1,0-0.2,0.1-0.4
			c0-0.2,0.1-0.5,0.1-0.8c0.1-0.3,0.1-0.6,0.2-0.9s0.1-0.5,0.2-0.7l1.5-6.9l4.3,0.7L98.9,75.4z M96.4,66.1c-0.4-0.3-0.9-0.5-1.4-0.6
			c-0.5-0.1-1.1-0.2-1.9-0.2c-0.7,0-1.3,0.2-2,0.5s-1.3,0.8-1.8,1.4c-0.4,0.5-0.8,1.1-1.1,1.9c-0.4,0.7-0.7,1.5-0.9,2.3
			c-0.2,0.8-0.4,1.6-0.6,2.4c-0.1,0.8-0.2,1.6-0.2,2.3c0,2.3,0.8,3.4,2.5,3.4c0.4,0,0.9-0.1,1.4-0.3s0.9-0.4,1.4-0.8
			c0.5-0.3,0.9-0.7,1.3-1.2c0.4-0.4,0.8-0.9,1.1-1.5L96.4,66.1z"/>
		<path fill="#484949" d="M122.9,67c0,1.7-0.6,3.1-1.8,4.3c-0.9,0.8-2,1.5-3.4,1.9c-1.4,0.4-3.2,0.7-5.3,0.7c-0.6,0-1.1,0-1.5-0.1
			c-0.4-0.1-0.8-0.1-1-0.1c-0.1,0.2-0.1,0.6-0.2,1c-0.1,0.4-0.1,0.8-0.1,1.2c0,1.3,0.3,2.3,1,2.9s1.6,0.9,2.7,0.9
			c1.1,0,2.1-0.2,3-0.6c0.9-0.4,1.9-0.9,2.8-1.7l1.4,2.8c-1.3,1-2.5,1.7-3.8,2.2c-1.3,0.5-2.8,0.7-4.6,0.7c-2.2,0-4-0.6-5.3-1.9
			s-2-3.2-2-5.6c0-1,0.1-2.1,0.3-3.1c0.2-1,0.5-2.1,0.9-3c0.4-1,0.9-1.9,1.4-2.8c0.6-0.9,1.2-1.7,1.9-2.3c1-1,2.1-1.7,3.3-2.1
			c1.1-0.4,2.4-0.7,3.7-0.7c2,0,3.6,0.5,4.8,1.4C122.3,63.7,122.9,65.1,122.9,67z M118.3,67.3c0-0.7-0.2-1.3-0.6-1.8
			c-0.4-0.5-1-0.7-2-0.7c-1.2,0-2.2,0.5-3.2,1.4c-0.9,0.9-1.6,2.4-2.1,4.3c0.1,0,0.4,0,0.7,0.1s0.7,0.1,1.1,0.1
			c1.3,0,2.3-0.1,3.2-0.3c0.9-0.2,1.5-0.6,2-1C118,68.7,118.3,68,118.3,67.3z"/>
		<path fill="#484949" d="M133,82.7H129l-3.1-20.5l4.6-0.7l1.3,11.4c0.1,0.7,0.1,1.4,0.2,2.2c0,0.8,0.1,1.5,0.1,2.1
			c0.1-0.3,0.3-0.6,0.4-1s0.4-0.8,0.6-1.3c0.2-0.4,0.4-0.8,0.6-1.2c0.2-0.4,0.4-0.7,0.5-1l5.9-10.8l4.9,0L133,82.7z"/>
		<path fill="#484949" d="M163.9,68.5c0,2.5-0.5,4.9-1.5,7.1c-1,2.2-2.3,4-4,5.3c-1,0.8-2,1.4-3,1.7s-2.1,0.5-3.2,0.5
			c-0.7,0-1.5,0-2.2-0.1c-0.8-0.1-1.5-0.2-2.2-0.4c-0.7-0.2-1.4-0.4-2-0.7c-0.6-0.3-1.2-0.6-1.7-1c0.1-0.4,0.3-0.8,0.4-1.4
			c0.1-0.6,0.3-1.1,0.4-1.6l3.8-18c0.2-0.8,0.3-1.6,0.4-2.3s0.1-1.3,0.1-1.9c0-0.7-0.1-1.3-0.2-1.8l4.6-1.5c0.2,0.6,0.2,1.3,0.2,2.1
			c0,0.6,0,1.3-0.1,2c-0.1,0.7-0.2,1.4-0.4,2.1l-0.7,3.1c-0.1,0.2-0.1,0.4-0.2,0.7c-0.1,0.3-0.1,0.6-0.2,0.9
			c-0.1,0.3-0.2,0.6-0.2,0.9c-0.1,0.3-0.1,0.5-0.2,0.7c0.7-1,1.6-1.7,2.8-2.4s2.4-1,3.7-1c1.9,0,3.3,0.6,4.2,1.9
			C163.5,64.6,163.9,66.3,163.9,68.5z M159,68.4c0-1-0.2-1.8-0.6-2.4c-0.4-0.6-1-0.8-1.8-0.8c-1,0-1.9,0.3-2.8,1s-1.8,1.6-2.6,2.8
			l-2,9.5c0.4,0.3,0.8,0.6,1.4,0.8c0.6,0.2,1.3,0.3,2,0.3c1.1,0,2.1-0.4,2.9-1.2c0.8-0.8,1.5-1.8,2-3c0.5-1.2,0.9-2.4,1.2-3.7
			C158.9,70.5,159,69.4,159,68.4z"/>
		<path fill="#484949" d="M176.5,52.3c0.1,0.4,0.2,1,0.2,1.9c0,0.7,0,1.5-0.1,2.4s-0.2,1.7-0.4,2.6l-3.5,16.6
			c-0.2,0.8-0.3,1.4-0.4,1.9c-0.1,0.4-0.1,0.8-0.1,1c0,0.7,0.3,1.1,1,1.1h0.4c0.1,0,0.2,0,0.3-0.1l0.2,2.7c-0.9,0.4-1.9,0.5-3,0.5
			c-1.2,0-2.1-0.3-2.7-0.9c-0.6-0.6-0.9-1.4-0.9-2.3c0-0.3,0-0.7,0.1-1.2s0.2-1.1,0.3-1.7l3.6-17c0.4-1.8,0.6-3.2,0.6-4.3
			c0-0.7-0.1-1.3-0.2-1.8L176.5,52.3z"/>
		<path fill="#484949" d="M197.4,68.7c0,1.9-0.3,3.7-0.8,5.4s-1.3,3.3-2.3,4.6s-2.2,2.4-3.7,3.2c-1.5,0.8-3.2,1.2-5.1,1.2
			c-2.3,0-4.1-0.6-5.3-1.9s-1.9-3.1-1.9-5.5c0-2,0.3-3.8,0.9-5.6s1.4-3.2,2.4-4.5c1-1.3,2.3-2.3,3.7-3c1.4-0.7,3-1.1,4.7-1.1
			c2.4,0,4.2,0.6,5.4,1.9S197.4,66.4,197.4,68.7z M192.5,68.6c0-1.4-0.3-2.3-0.9-2.9s-1.3-0.8-2.3-0.8c-1,0-1.9,0.4-2.7,1.1
			c-0.8,0.7-1.4,1.7-1.9,2.8c-0.5,1.1-0.9,2.3-1.2,3.6c-0.3,1.3-0.4,2.6-0.4,3.7c0,1.3,0.3,2.2,0.8,2.7c0.6,0.6,1.3,0.9,2.3,0.9
			s1.9-0.3,2.7-1c0.8-0.7,1.4-1.6,1.9-2.7s0.9-2.3,1.2-3.6S192.5,69.8,192.5,68.6z"/>
		<path fill="#484949" d="M221,63c0,0.1-0.1,0.3-0.2,0.5s-0.2,0.6-0.2,0.9c-0.1,0.3-0.2,0.7-0.3,1s-0.2,0.7-0.3,1l-2.2,10.1
			c-0.4,1.6-0.6,2.9-0.8,4.1s-0.4,2.1-0.5,2.9c-0.3,1.4-0.8,2.7-1.5,3.6c-0.7,1-1.5,1.8-2.4,2.4c-0.9,0.6-2,1-3.2,1.3
			c-1.2,0.3-2.4,0.4-3.8,0.4c-2.7,0-5.1-0.6-7.2-1.8l1.5-3.2c1.7,1,3.7,1.5,6,1.5c1.7,0,3.1-0.3,4-1c0.9-0.7,1.6-1.7,2-3.2
			c0-0.1,0.1-0.3,0.1-0.6c0.1-0.3,0.1-0.6,0.2-0.9c0.1-0.3,0.2-0.6,0.2-0.9c0.1-0.3,0.1-0.5,0.1-0.6c-0.8,0.9-1.7,1.5-2.6,1.9
			c-0.9,0.4-2,0.6-3.1,0.6c-4.1,0-6.1-2.3-6.1-7c0-1.1,0.1-2.1,0.3-3.2c0.2-1.1,0.5-2.2,0.9-3.2s0.9-2,1.4-2.9s1.2-1.7,1.9-2.3
			c1-1,2.2-1.7,3.5-2.2s2.7-0.8,4.2-0.8c1.7,0,3.1,0.1,4.2,0.4S219.9,62.4,221,63z M215.8,65.7c-0.6-0.4-1.5-0.6-2.8-0.6
			c-0.7,0-1.5,0.2-2.2,0.5c-0.8,0.3-1.5,0.8-2,1.4c-0.4,0.5-0.8,1.1-1.2,1.8c-0.4,0.7-0.7,1.5-0.9,2.3c-0.3,0.8-0.5,1.6-0.6,2.5
			c-0.1,0.8-0.2,1.6-0.2,2.3c0,1.2,0.2,2.1,0.7,2.7c0.5,0.6,1.1,0.9,2,0.9c0.9,0,1.8-0.3,2.8-1c0.9-0.7,1.7-1.6,2.3-2.7L215.8,65.7z
			"/>
	</g>
</g>
<g id="Ebene_3">
</g>
</svg>
