<?xml version="1.0" encoding="utf-8"?>
<!-- Generator: Adobe Illustrator 12.0.0, SVG Export Plug-In . SVG Version: 6.00 Build 51448)  -->
<!DOCTYPE svg PUBLIC "-//W3C//DTD SVG 1.1//EN" "http://www.w3.org/Graphics/SVG/1.1/DTD/svg11.dtd" [
	<!ENTITY ns_svg "http://www.w3.org/2000/svg">
	<!ENTITY ns_xlink "http://www.w3.org/1999/xlink">
]>
<svg  version="1.1" xmlns="&ns_svg;" xmlns:xlink="&ns_xlink;" width="380.7" height="299.6" viewBox="0 0 380.7 299.6"
	 overflow="visible" enable-background="new 0 0 380.7 299.6" xml:space="preserve">
<g id="Ebene_1" display="none">
	<path display="inline" fill="#CCCDCB" d="M371.7,261.5H10c-4.9,0-8.9-4-8.9-8.9V10.1c0-4.9,4-8.9,8.9-8.9h361.7
		c4.9,0,8.9,4,8.9,8.9v242.5C380.7,257.5,376.6,261.5,371.7,261.5z"/>
	<path display="inline" fill="#5E656F" d="M208,230.4h-32c-1,0-1.9-0.8-1.9-1.9l0,0c0-1,0.8-1.9,1.9-1.9h32c1,0,1.9,0.8,1.9,1.9l0,0
		C209.9,229.6,209.1,230.4,208,230.4z"/>
	<path display="inline" fill="#39414B" d="M380.7,215.1H1.1c0-43.8,0-87.6,0-131.5c126.5,0,253.1,0.1,379.6,0.1V215.1z"/>
	<path display="inline" fill="#39414B" d="M371.7,1.2H10c-4.9,0-8.9,4-8.9,8.9v91.2c0,4.9,4,8.9,8.9,8.9h361.7c4.9,0,8.9-4,8.9-8.9
		V10.1C380.7,5.2,376.6,1.2,371.7,1.2z"/>
	<rect x="11.3" y="12.8" display="inline" fill="#606771" width="359.2" height="191.2"/>
	<rect x="112.9" y="286.1" display="inline" fill="#CCCDCB" width="158.3" height="13.5"/>
	<rect x="146.5" y="261.5" display="inline" fill="#A7AAAF" width="91" height="24.6"/>
	<rect x="12.3" y="24.6" display="inline" fill="#535D69" width="158.7" height="171.4"/>
	<rect x="77.3" y="48.9" display="inline" fill="#EEEEEE" width="52.9" height="4.6"/>
	<rect x="51.6" y="69.3" display="inline" fill="#EEEEEE" width="42.3" height="4.6"/>
	<rect x="22.5" y="80.3" display="inline" fill="#078E8A" width="42.3" height="4.6"/>
	<rect x="28.9" y="87.7" display="inline" fill="#EEEEEE" width="52.2" height="4.6"/>
	<rect x="51.2" y="98.4" display="inline" fill="#EEEEEE" width="52.2" height="4.6"/>
	<rect x="28.9" y="111.7" display="inline" fill="#078E8A" width="52.2" height="4.6"/>
	<rect x="41.8" y="118.3" display="inline" fill="#EEEEEE" width="42" height="4.6"/>
	<rect x="36.3" y="136.7" display="inline" fill="#EEEEEE" width="52.4" height="4.6"/>
	<rect x="18.1" y="161.2" display="inline" fill="#EEEEEE" width="42" height="4.6"/>
	<rect x="45.5" y="179.5" display="inline" fill="#EEEEEE" width="50.3" height="4.6"/>
	<rect x="21.3" y="186.4" display="inline" fill="#EEEEEE" width="42" height="4.6"/>
	<rect x="18.1" y="179.5" display="inline" fill="#078E8A" width="23.2" height="4.6"/>
	<rect x="39.6" y="149.9" display="inline" fill="#EEEEEE" width="63.5" height="4.6"/>
	<rect x="39.6" y="143" display="inline" fill="#078E8A" width="102.8" height="4.6"/>
	<rect x="21.6" y="98.4" display="inline" fill="#EEEEEE" width="24.4" height="4.6"/>
	<rect x="98.5" y="69.3" display="inline" fill="#EEEEEE" width="63.5" height="4.6"/>
	<rect x="56.1" y="55.5" display="inline" fill="#078E8A" width="35.2" height="4.6"/>
	<rect x="30.4" y="48.9" display="inline" fill="#EEEEEE" width="42.3" height="4.6"/>
	<rect x="22.5" y="37.4" display="inline" fill="#EEEEEE" width="27.6" height="4.6"/>
	<rect x="22.5" y="30.8" display="inline" fill="#078E8A" width="27.6" height="4.6"/>
	<path display="inline" fill="#078E8A" stroke="#FFFFFF" stroke-width="3" stroke-miterlimit="10" d="M290.4,128.6
		c0,4.7,0,9.4,0,14.1c-2.1,1.3-4.5,1.8-6.8,2.6c-7.2,2.6-10,9.3-6.6,16.2c0.9,1.8,1.7,3.6,2.6,5.4c0.4,0.9,0.5,1.5-0.3,2.2
		c-2.9,2.8-5.7,5.6-8.5,8.5c-0.7,0.7-1.2,0.6-2,0.2c-2.1-1.1-4.3-2.1-6.4-3.1c-6.1-2.7-12.7,0.2-15,6.4c-0.8,2.1-1.6,4.2-2.3,6.4
		c-0.3,1-0.8,1.4-1.9,1.4c-3.9-0.1-7.7-0.1-11.6,0c-1.1,0-1.6-0.3-1.9-1.4c-0.7-2.1-1.4-4.3-2.2-6.4c-2.4-6.4-9.1-9.1-15.3-6.2
		c-2,1-4.1,1.9-6.1,2.9c-0.8,0.4-1.4,0.4-2-0.3c-2.8-2.9-5.6-5.7-8.5-8.5c-0.8-0.7-0.7-1.3-0.3-2.2c1-2,2-4,2.9-6.1
		c2.8-6.1,0-12.8-6.2-15.2c-2.2-0.8-4.4-1.6-6.6-2.3c-0.9-0.3-1.2-0.8-1.2-1.7c0-4,0-8,0-12c0-0.9,0.4-1.4,1.2-1.6
		c2.1-0.7,4.1-1.4,6.2-2.2c6.7-2.5,9.5-9.2,6.4-15.7c-0.9-1.9-1.7-3.8-2.7-5.6c-0.5-1-0.5-1.6,0.3-2.5c2.8-2.6,5.5-5.3,8.1-8.1
		c0.9-0.9,1.6-1,2.6-0.4c1.9,1,3.8,1.9,5.7,2.8c6.2,2.9,13,0.2,15.3-6.2c0.8-2.1,1.5-4.1,2.2-6.2c0.3-1,0.8-1.5,2-1.5
		c3.9,0.1,7.7,0.1,11.6,0c1.1,0,1.6,0.4,1.9,1.4c0.7,2.1,1.5,4.1,2.2,6.2c2.4,6.5,8.9,9.3,15.2,6.4c2.1-0.9,4.2-1.9,6.3-3
		c0.8-0.4,1.3-0.4,2,0.3c2.8,2.9,5.6,5.7,8.5,8.5c0.7,0.6,0.8,1.2,0.3,2c-1.1,2.1-2,4.2-3,6.3c-2.8,6.2,0,12.9,6.4,15.3
		C285.6,126.7,288.1,127.3,290.4,128.6z M218.1,135.8c0,10.6,8.7,19.3,19.3,19.4c10.7,0.1,19.6-8.9,19.5-19.6
		c0-10.7-8.9-19.5-19.5-19.4C226.7,116.3,218,125.1,218.1,135.8z"/>
	<path display="inline" fill="#078E8A" stroke="#FFFFFF" stroke-width="3" stroke-miterlimit="10" d="M342,71.3
		c-1.3,2.8-2.5,5.6-3.8,8.3c-1.6,0.2-3.1-0.1-4.7-0.3c-5-0.4-8.4,2.8-8.2,7.8c0,1.3,0,2.6,0.1,3.9c0,0.6-0.1,1-0.8,1.2
		c-2.4,0.9-4.9,1.8-7.3,2.7c-0.6,0.2-0.9,0.1-1.2-0.4c-1-1.2-2-2.4-3-3.5c-2.9-3.2-7.5-3.3-10.6-0.2c-1,1-2.1,2.1-3,3.2
		c-0.5,0.5-0.8,0.6-1.5,0.3c-2.3-1.1-4.6-2.1-6.9-3.1c-0.7-0.3-0.8-0.6-0.8-1.3c0.2-1.5,0.3-2.9,0.4-4.4c0.3-4.4-3-7.8-7.4-7.8
		c-1.5,0-2.9,0-4.4,0.1c-0.6,0-0.9-0.1-1.1-0.7c-0.9-2.4-1.8-4.9-2.7-7.3c-0.3-0.6-0.1-1,0.4-1.4c1.1-0.9,2.3-1.9,3.4-2.8
		c3.3-2.8,3.5-7.6,0.4-10.6c-1.1-1.1-2.1-2.1-3.3-3.1c-0.5-0.4-0.5-0.8-0.3-1.3c1.1-2.4,2.2-4.7,3.2-7.1c0.2-0.6,0.6-0.7,1.2-0.6
		c1.4,0.2,2.8,0.3,4.2,0.4c4.6,0.4,8.1-2.9,8-7.6c0-1.3,0-2.7-0.1-4c0-0.7,0.1-1.1,0.9-1.4c2.3-0.8,4.6-1.7,6.9-2.6
		c0.8-0.3,1.2-0.1,1.7,0.5c0.8,1.1,1.8,2.1,2.6,3.2c2.9,3.4,7.6,3.6,10.7,0.4c1-1,2-2,2.9-3.1c0.5-0.5,0.9-0.7,1.6-0.4
		c2.3,1.1,4.5,2.1,6.9,3.1c0.7,0.3,0.8,0.6,0.7,1.3c-0.2,1.4-0.2,2.8-0.4,4.2c-0.3,4.4,2.8,7.9,7.3,7.9c1.5,0,3,0,4.5-0.1
		c0.6,0,0.9,0.1,1.1,0.7c0.9,2.4,1.8,4.9,2.7,7.3c0.2,0.6,0.1,0.9-0.3,1.3c-1.2,0.9-2.3,1.9-3.4,2.9c-3.3,2.9-3.5,7.6-0.3,10.7
		C339.7,68.9,341,69.9,342,71.3z M297.4,56.2c-2.8,6.2,0,13.7,6.2,16.6c6.3,2.9,13.9,0,16.8-6.4c2.8-6.3,0-13.9-6.3-16.7
		C307.7,47,300.3,49.8,297.4,56.2z"/>
</g>
<g id="Ebene_2">
	<path fill="#CCCDCB" d="M370.5,260.3H8.9c-4.9,0-8.9-4-8.9-8.9V8.9C0,4,4,0,8.9,0h361.6c4.9,0,8.9,4,8.9,8.9v242.4
		C379.5,256.2,375.5,260.3,370.5,260.3z"/>
	<path fill="#5E656F" d="M206.9,229.2h-32c-1,0-1.9-0.8-1.9-1.9l0,0c0-1,0.8-1.9,1.9-1.9h32c1,0,1.9,0.8,1.9,1.9l0,0
		C208.8,228.3,207.9,229.2,206.9,229.2z"/>
	<path fill="#39414B" d="M379.5,213.9H0c0-43.8,0-87.6,0-131.4c126.5,0,253,0.1,379.5,0.1V213.9z"/>
	<path fill="#39414B" d="M370.5,0H8.9C4,0,0,4.4,0,9.9v100.6c0,5.4,4,9.9,8.9,9.9h361.6c4.9,0,8.9-4.4,8.9-9.9V9.9
		C379.5,4.4,375.5,0,370.5,0z"/>
	<rect x="10.2" y="11.6" fill="#606771" width="359.1" height="191.1"/>
	<rect x="111.8" y="284.9" fill="#CCCDCB" width="158.2" height="13.5"/>
	<rect x="145.4" y="260.3" fill="#A7AAAF" width="90.9" height="24.6"/>
	<rect x="248.1" y="24.5" fill="#535D69" width="108" height="150"/>
	<rect x="258.8" y="62.5" fill="#078E8A" width="29.9" height="4.2"/>
	<rect x="263.4" y="69.4" fill="#EEEEEE" width="36.8" height="4.2"/>
	<rect x="263.4" y="85.9" fill="#EEEEEE" width="36.8" height="4.2"/>
	<rect x="272.5" y="97.7" fill="#EEEEEE" width="29.6" height="4.2"/>
	<rect x="268.6" y="114.7" fill="#EEEEEE" width="55.9" height="4.2"/>
	<rect x="268.6" y="121.1" fill="#078E8A" width="29.6" height="4.2"/>
	<rect x="259" y="137.3" fill="#EEEEEE" width="29.6" height="4.2"/>
	<rect x="278.3" y="154.3" fill="#EEEEEE" width="35.5" height="4.2"/>
	<rect x="259" y="154.3" fill="#078E8A" width="16.4" height="4.2"/>
	<rect x="302.1" y="121.1" fill="#EEEEEE" width="44.8" height="4.2"/>
	<rect x="303.4" y="46" fill="#EEEEEE" width="39" height="4.2"/>
	<rect x="261.2" y="46" fill="#EEEEEE" width="39" height="4.2"/>
	<rect x="282.6" y="39.7" fill="#078E8A" width="24.8" height="4.2"/>
	<rect x="264.4" y="33.5" fill="#EEEEEE" width="29.9" height="4.2"/>
	<rect x="15.7" y="24.7" fill="#FF0000" stroke="#FFFFFF" stroke-miterlimit="10" width="37" height="37.5"/>
	<rect x="52.7" y="24.7" fill="#FFFF00" stroke="#FFFFFF" stroke-miterlimit="10" width="37" height="37.5"/>
	<rect x="89.7" y="24.7" fill="#00FF00" stroke="#FFFFFF" stroke-miterlimit="10" width="37" height="37.5"/>
	<rect x="126.7" y="24.7" fill="#00FFFF" stroke="#FFFFFF" stroke-miterlimit="10" width="37" height="37.5"/>
	<rect x="163.7" y="24.7" fill="#0000FF" stroke="#FFFFFF" stroke-miterlimit="10" width="37" height="37.5"/>
	<rect x="200.7" y="24.7" fill="#FF00FF" stroke="#FFFFFF" stroke-miterlimit="10" width="37" height="37.5"/>
	<rect x="15.7" y="62.2" fill="#006837" stroke="#FFFFFF" stroke-miterlimit="10" width="37" height="37.5"/>
	<rect x="52.7" y="62.2" fill="#22B573" stroke="#FFFFFF" stroke-miterlimit="10" width="37" height="37.5"/>
	<rect x="89.7" y="62.2" fill="#00A99D" stroke="#FFFFFF" stroke-miterlimit="10" width="37" height="37.5"/>
	<rect x="126.7" y="62.2" fill="#29ABE2" stroke="#FFFFFF" stroke-miterlimit="10" width="37" height="37.5"/>
	<rect x="163.7" y="62.2" fill="#0071BC" stroke="#FFFFFF" stroke-miterlimit="10" width="37" height="37.5"/>
	<rect x="200.7" y="62.2" fill="#2E3192" stroke="#FFFFFF" stroke-miterlimit="10" width="37" height="37.5"/>
	<rect x="15.7" y="99.6" fill="#93278F" stroke="#FFFFFF" stroke-miterlimit="10" width="37" height="37.5"/>
	<rect x="52.7" y="99.6" fill="#9E005D" stroke="#FFFFFF" stroke-miterlimit="10" width="37" height="37.5"/>
	<rect x="89.7" y="99.6" fill="#D4145A" stroke="#FFFFFF" stroke-miterlimit="10" width="37" height="37.5"/>
	<rect x="126.7" y="99.6" fill="#ED1E79" stroke="#FFFFFF" stroke-miterlimit="10" width="37" height="37.5"/>
	<rect x="163.7" y="99.6" fill="#C7B299" stroke="#FFFFFF" stroke-miterlimit="10" width="37" height="37.5"/>
	<rect x="200.7" y="99.6" fill="#998675" stroke="#FFFFFF" stroke-miterlimit="10" width="37" height="37.5"/>
	<rect x="15.7" y="137.1" fill="#C1272D" stroke="#FFFFFF" stroke-miterlimit="10" width="37" height="37.5"/>
	<rect x="52.7" y="137.1" fill="#ED1C24" stroke="#FFFFFF" stroke-miterlimit="10" width="37" height="37.5"/>
	<rect x="89.7" y="137.1" fill="#F15A24" stroke="#FFFFFF" stroke-miterlimit="10" width="37" height="37.5"/>
	<rect x="126.7" y="137.1" fill="#F7931E" stroke="#FFFFFF" stroke-miterlimit="10" width="37" height="37.5"/>
</g>
</svg>
