<?xml version="1.0" encoding="utf-8"?>
<!-- Generator: Adobe Illustrator 12.0.0, SVG Export Plug-In . SVG Version: 6.00 Build 51448)  -->
<!DOCTYPE svg PUBLIC "-//W3C//DTD SVG 1.1//EN" "http://www.w3.org/Graphics/SVG/1.1/DTD/svg11.dtd" [
	<!ENTITY ns_svg "http://www.w3.org/2000/svg">
	<!ENTITY ns_xlink "http://www.w3.org/1999/xlink">
]>
<svg  version="1.1" xmlns="&ns_svg;" xmlns:xlink="&ns_xlink;" width="405.7" height="299.6" viewBox="0 0 405.7 299.6"
	 overflow="visible" enable-background="new 0 0 405.7 299.6" xml:space="preserve">
<g id="Ebene_1" display="none">
	<path display="inline" fill="#CCCDCB" d="M384.2,261.5H22.5c-4.9,0-8.9-4-8.9-8.9V10.1c0-4.9,4-8.9,8.9-8.9h361.7
		c4.9,0,8.9,4,8.9,8.9v242.5C393.1,257.5,389.1,261.5,384.2,261.5z"/>
	<path display="inline" fill="#5E656F" d="M220.5,230.4h-32c-1,0-1.9-0.8-1.9-1.9l0,0c0-1,0.8-1.9,1.9-1.9h32c1,0,1.9,0.8,1.9,1.9
		l0,0C222.4,229.6,221.5,230.4,220.5,230.4z"/>
	<path display="inline" fill="#39414B" d="M393.1,215.1H13.5c0-43.8,0-87.6,0-131.5c126.5,0,253.1,0.1,379.6,0.1V215.1z"/>
	<path display="inline" fill="#39414B" d="M384.2,1.2H22.5c-4.9,0-8.9,4-8.9,8.9v91.2c0,4.9,4,8.9,8.9,8.9h361.7
		c4.9,0,8.9-4,8.9-8.9V10.1C393.1,5.2,389.1,1.2,384.2,1.2z"/>
	<rect x="23.7" y="12.8" display="inline" fill="#606771" width="359.2" height="191.2"/>
	<rect x="125.4" y="286.1" display="inline" fill="#CCCDCB" width="158.3" height="13.5"/>
	<rect x="159" y="261.5" display="inline" fill="#A7AAAF" width="91" height="24.6"/>
	<rect x="24.8" y="24.6" display="inline" fill="#535D69" width="158.7" height="171.4"/>
	<rect x="89.8" y="48.9" display="inline" fill="#EEEEEE" width="52.9" height="4.6"/>
	<rect x="64.1" y="69.3" display="inline" fill="#EEEEEE" width="42.3" height="4.6"/>
	<rect x="35" y="80.3" display="inline" fill="#078E8A" width="42.3" height="4.6"/>
	<rect x="41.4" y="87.7" display="inline" fill="#EEEEEE" width="52.2" height="4.6"/>
	<rect x="63.7" y="98.4" display="inline" fill="#EEEEEE" width="52.2" height="4.6"/>
	<rect x="41.4" y="111.7" display="inline" fill="#078E8A" width="52.2" height="4.6"/>
	<rect x="54.2" y="118.3" display="inline" fill="#EEEEEE" width="42" height="4.6"/>
	<rect x="48.8" y="136.7" display="inline" fill="#EEEEEE" width="52.4" height="4.6"/>
	<rect x="30.5" y="161.2" display="inline" fill="#EEEEEE" width="42" height="4.6"/>
	<rect x="58" y="179.5" display="inline" fill="#EEEEEE" width="50.3" height="4.6"/>
	<rect x="33.8" y="186.4" display="inline" fill="#EEEEEE" width="42" height="4.6"/>
	<rect x="30.5" y="179.5" display="inline" fill="#078E8A" width="23.2" height="4.6"/>
	<rect x="52.1" y="149.9" display="inline" fill="#EEEEEE" width="63.5" height="4.6"/>
	<rect x="52.1" y="143" display="inline" fill="#078E8A" width="102.8" height="4.6"/>
	<rect x="34" y="98.4" display="inline" fill="#EEEEEE" width="24.4" height="4.6"/>
	<rect x="111" y="69.3" display="inline" fill="#EEEEEE" width="63.5" height="4.6"/>
	<rect x="68.6" y="55.5" display="inline" fill="#078E8A" width="35.2" height="4.6"/>
	<rect x="42.9" y="48.9" display="inline" fill="#EEEEEE" width="42.3" height="4.6"/>
	<rect x="35" y="37.4" display="inline" fill="#EEEEEE" width="27.6" height="4.6"/>
	<rect x="35" y="30.8" display="inline" fill="#078E8A" width="27.6" height="4.6"/>
	<path display="inline" fill="#078E8A" stroke="#FFFFFF" stroke-width="3" stroke-miterlimit="10" d="M302.9,128.6
		c0,4.7,0,9.4,0,14.1c-2.1,1.3-4.5,1.8-6.8,2.6c-7.2,2.6-10,9.3-6.6,16.2c0.9,1.8,1.7,3.6,2.6,5.4c0.4,0.9,0.5,1.5-0.3,2.2
		c-2.9,2.8-5.7,5.6-8.5,8.5c-0.7,0.7-1.2,0.6-2,0.2c-2.1-1.1-4.3-2.1-6.4-3.1c-6.1-2.7-12.7,0.2-15,6.4c-0.8,2.1-1.6,4.2-2.3,6.4
		c-0.3,1-0.8,1.4-1.9,1.4c-3.9-0.1-7.7-0.1-11.6,0c-1.1,0-1.6-0.3-1.9-1.4c-0.7-2.1-1.4-4.3-2.2-6.4c-2.4-6.4-9.1-9.1-15.3-6.2
		c-2,1-4.1,1.9-6.1,2.9c-0.8,0.4-1.4,0.4-2-0.3c-2.8-2.9-5.6-5.7-8.5-8.5c-0.8-0.7-0.7-1.3-0.3-2.2c1-2,2-4,2.9-6.1
		c2.8-6.1,0-12.8-6.2-15.2c-2.2-0.8-4.4-1.6-6.6-2.3c-0.9-0.3-1.2-0.8-1.2-1.7c0-4,0-8,0-12c0-0.9,0.4-1.4,1.2-1.6
		c2.1-0.7,4.1-1.4,6.2-2.2c6.7-2.5,9.5-9.2,6.4-15.7c-0.9-1.9-1.7-3.8-2.7-5.6c-0.5-1-0.5-1.6,0.3-2.5c2.8-2.6,5.5-5.3,8.1-8.1
		c0.9-0.9,1.6-1,2.6-0.4c1.9,1,3.8,1.9,5.7,2.8c6.2,2.9,13,0.2,15.3-6.2c0.8-2.1,1.5-4.1,2.2-6.2c0.3-1,0.8-1.5,2-1.5
		c3.9,0.1,7.7,0.1,11.6,0c1.1,0,1.6,0.4,1.9,1.4c0.7,2.1,1.5,4.1,2.2,6.2c2.4,6.5,8.9,9.3,15.2,6.4c2.1-0.9,4.2-1.9,6.3-3
		c0.8-0.4,1.3-0.4,2,0.3c2.8,2.9,5.6,5.7,8.5,8.5c0.7,0.6,0.8,1.2,0.3,2c-1.1,2.1-2,4.2-3,6.3c-2.8,6.2,0,12.9,6.4,15.3
		C298,126.7,300.6,127.3,302.9,128.6z M230.5,135.8c0,10.6,8.7,19.3,19.3,19.4c10.7,0.1,19.6-8.9,19.5-19.6
		c0-10.7-8.9-19.5-19.5-19.4C239.2,116.3,230.5,125.1,230.5,135.8z"/>
	<path display="inline" fill="#078E8A" stroke="#FFFFFF" stroke-width="3" stroke-miterlimit="10" d="M354.5,71.3
		c-1.3,2.8-2.5,5.6-3.8,8.3c-1.6,0.2-3.1-0.1-4.7-0.3c-5-0.4-8.4,2.8-8.2,7.8c0,1.3,0,2.6,0.1,3.9c0,0.6-0.1,1-0.8,1.2
		c-2.4,0.9-4.9,1.8-7.3,2.7c-0.6,0.2-0.9,0.1-1.2-0.4c-1-1.2-2-2.4-3-3.5c-2.9-3.2-7.5-3.3-10.6-0.2c-1,1-2.1,2.1-3,3.2
		c-0.5,0.5-0.8,0.6-1.5,0.3c-2.3-1.1-4.6-2.1-6.9-3.1c-0.7-0.3-0.8-0.6-0.8-1.3c0.2-1.5,0.3-2.9,0.4-4.4c0.3-4.4-3-7.8-7.4-7.8
		c-1.5,0-2.9,0-4.4,0.1c-0.6,0-0.9-0.1-1.1-0.7c-0.9-2.4-1.8-4.9-2.7-7.3c-0.3-0.6-0.1-1,0.4-1.4c1.1-0.9,2.3-1.9,3.4-2.8
		c3.3-2.8,3.5-7.6,0.4-10.6c-1.1-1.1-2.1-2.1-3.3-3.1c-0.5-0.4-0.5-0.8-0.3-1.3c1.1-2.4,2.2-4.7,3.2-7.1c0.2-0.6,0.6-0.7,1.2-0.6
		c1.4,0.2,2.8,0.3,4.2,0.4c4.6,0.4,8.1-2.9,8-7.6c0-1.3,0-2.7-0.1-4c0-0.7,0.1-1.1,0.9-1.4c2.3-0.8,4.6-1.7,6.9-2.6
		c0.8-0.3,1.2-0.1,1.7,0.5c0.8,1.1,1.8,2.1,2.6,3.2c2.9,3.4,7.6,3.6,10.7,0.4c1-1,2-2,2.9-3.1c0.5-0.5,0.9-0.7,1.6-0.4
		c2.3,1.1,4.5,2.1,6.9,3.1c0.7,0.3,0.8,0.6,0.7,1.3c-0.2,1.4-0.2,2.8-0.4,4.2c-0.3,4.4,2.8,7.9,7.3,7.9c1.5,0,3,0,4.5-0.1
		c0.6,0,0.9,0.1,1.1,0.7c0.9,2.4,1.8,4.9,2.7,7.3c0.2,0.6,0.1,0.9-0.3,1.3c-1.2,0.9-2.3,1.9-3.4,2.9c-3.3,2.9-3.5,7.6-0.3,10.7
		C352.1,68.9,353.5,69.9,354.5,71.3z M309.9,56.2c-2.8,6.2,0,13.7,6.2,16.6c6.3,2.9,13.9,0,16.8-6.4c2.8-6.3,0-13.9-6.3-16.7
		C320.2,47,312.7,49.8,309.9,56.2z"/>
</g>
<g id="Ebene_2" display="none">
	<path display="inline" fill="#CCCDCB" d="M383,260.3H21.4c-4.9,0-8.9-4-8.9-8.9V8.9c0-4.9,4-8.9,8.9-8.9H383c4.9,0,8.9,4,8.9,8.9
		v242.4C392,256.2,387.9,260.3,383,260.3z"/>
	<path display="inline" fill="#5E656F" d="M219.4,229.2h-32c-1,0-1.9-0.8-1.9-1.9l0,0c0-1,0.8-1.9,1.9-1.9h32c1,0,1.9,0.8,1.9,1.9
		l0,0C221.2,228.3,220.4,229.2,219.4,229.2z"/>
	<path display="inline" fill="#39414B" d="M392,213.9H12.5c0-43.8,0-87.6,0-131.4c126.5,0,253,0.1,379.5,0.1V213.9z"/>
	<path display="inline" fill="#39414B" d="M383,0H21.4c-4.9,0-8.9,4.4-8.9,9.9v100.6c0,5.4,4,9.9,8.9,9.9H383c4.9,0,8.9-4.4,8.9-9.9
		V9.9C392,4.4,387.9,0,383,0z"/>
	<rect x="22.7" y="11.6" display="inline" fill="#606771" width="359.1" height="191.1"/>
	<rect x="124.3" y="284.9" display="inline" fill="#CCCDCB" width="158.2" height="13.5"/>
	<rect x="157.9" y="260.3" display="inline" fill="#A7AAAF" width="90.9" height="24.6"/>
	<rect x="260.6" y="24.5" display="inline" fill="#535D69" width="108" height="150"/>
	<rect x="271.3" y="62.5" display="inline" fill="#078E8A" width="29.9" height="4.2"/>
	<rect x="275.8" y="69.4" display="inline" fill="#EEEEEE" width="36.8" height="4.2"/>
	<rect x="275.8" y="85.9" display="inline" fill="#EEEEEE" width="36.8" height="4.2"/>
	<rect x="284.9" y="97.7" display="inline" fill="#EEEEEE" width="29.6" height="4.2"/>
	<rect x="281.1" y="114.7" display="inline" fill="#EEEEEE" width="55.9" height="4.2"/>
	<rect x="281.1" y="121.1" display="inline" fill="#078E8A" width="29.6" height="4.2"/>
	<rect x="271.4" y="137.3" display="inline" fill="#EEEEEE" width="29.6" height="4.2"/>
	<rect x="290.8" y="154.3" display="inline" fill="#EEEEEE" width="35.5" height="4.2"/>
	<rect x="271.4" y="154.3" display="inline" fill="#078E8A" width="16.4" height="4.2"/>
	<rect x="314.5" y="121.1" display="inline" fill="#EEEEEE" width="44.8" height="4.2"/>
	<rect x="315.9" y="46" display="inline" fill="#EEEEEE" width="39" height="4.2"/>
	<rect x="273.7" y="46" display="inline" fill="#EEEEEE" width="39" height="4.2"/>
	<rect x="295.1" y="39.7" display="inline" fill="#078E8A" width="24.8" height="4.2"/>
	<rect x="276.9" y="33.5" display="inline" fill="#EEEEEE" width="29.9" height="4.2"/>
	<rect x="28.1" y="24.7" display="inline" fill="#FF0000" stroke="#FFFFFF" stroke-miterlimit="10" width="37" height="37.5"/>
	<rect x="65.2" y="24.7" display="inline" fill="#FFFF00" stroke="#FFFFFF" stroke-miterlimit="10" width="37" height="37.5"/>
	<rect x="102.2" y="24.7" display="inline" fill="#00FF00" stroke="#FFFFFF" stroke-miterlimit="10" width="37" height="37.5"/>
	<rect x="139.2" y="24.7" display="inline" fill="#00FFFF" stroke="#FFFFFF" stroke-miterlimit="10" width="37" height="37.5"/>
	<rect x="176.2" y="24.7" display="inline" fill="#0000FF" stroke="#FFFFFF" stroke-miterlimit="10" width="37" height="37.5"/>
	<rect x="213.2" y="24.7" display="inline" fill="#FF00FF" stroke="#FFFFFF" stroke-miterlimit="10" width="37" height="37.5"/>
	<rect x="28.1" y="62.2" display="inline" fill="#006837" stroke="#FFFFFF" stroke-miterlimit="10" width="37" height="37.5"/>
	<rect x="65.2" y="62.2" display="inline" fill="#22B573" stroke="#FFFFFF" stroke-miterlimit="10" width="37" height="37.5"/>
	<rect x="102.2" y="62.2" display="inline" fill="#00A99D" stroke="#FFFFFF" stroke-miterlimit="10" width="37" height="37.5"/>
	<rect x="139.2" y="62.2" display="inline" fill="#29ABE2" stroke="#FFFFFF" stroke-miterlimit="10" width="37" height="37.5"/>
	<rect x="176.2" y="62.2" display="inline" fill="#0071BC" stroke="#FFFFFF" stroke-miterlimit="10" width="37" height="37.5"/>
	<rect x="213.2" y="62.2" display="inline" fill="#2E3192" stroke="#FFFFFF" stroke-miterlimit="10" width="37" height="37.5"/>
	<rect x="28.1" y="99.6" display="inline" fill="#93278F" stroke="#FFFFFF" stroke-miterlimit="10" width="37" height="37.5"/>
	<rect x="65.2" y="99.6" display="inline" fill="#9E005D" stroke="#FFFFFF" stroke-miterlimit="10" width="37" height="37.5"/>
	<rect x="102.2" y="99.6" display="inline" fill="#D4145A" stroke="#FFFFFF" stroke-miterlimit="10" width="37" height="37.5"/>
	<rect x="139.2" y="99.6" display="inline" fill="#ED1E79" stroke="#FFFFFF" stroke-miterlimit="10" width="37" height="37.5"/>
	<rect x="176.2" y="99.6" display="inline" fill="#C7B299" stroke="#FFFFFF" stroke-miterlimit="10" width="37" height="37.5"/>
	<rect x="213.2" y="99.6" display="inline" fill="#998675" stroke="#FFFFFF" stroke-miterlimit="10" width="37" height="37.5"/>
	<rect x="28.1" y="137.1" display="inline" fill="#C1272D" stroke="#FFFFFF" stroke-miterlimit="10" width="37" height="37.5"/>
	<rect x="65.2" y="137.1" display="inline" fill="#ED1C24" stroke="#FFFFFF" stroke-miterlimit="10" width="37" height="37.5"/>
	<rect x="102.2" y="137.1" display="inline" fill="#F15A24" stroke="#FFFFFF" stroke-miterlimit="10" width="37" height="37.5"/>
	<rect x="139.2" y="137.1" display="inline" fill="#F7931E" stroke="#FFFFFF" stroke-miterlimit="10" width="37" height="37.5"/>
</g>
<g id="Ebene_3">
	<path fill="#484949" d="M405.7,63.5c0-3.8-3.4-6.9-7.5-6.9H7.5c-4.2,0-7.5,3.1-7.5,6.9v227.9c0,3.8,3.4,6.9,7.5,6.9h390.6
		c4.2,0,7.5-3.1,7.5-6.9V63.5z"/>
	<path fill="#FAFAFA" d="M398.5,285.5c0,3.9-3.1,7-6.9,7H13.1c-3.8,0-6.9-3.1-6.9-7V67.9c0-3.9,3.1-7,6.9-7h378.4
		c3.8,0,6.9,3.1,6.9,7V285.5z"/>
	<g>
		<g>
			<rect x="32" y="86.8" fill="none" width="230.7" height="151"/>
			<path fill="#078D89" d="M32,239.3c47.4,0,94.7,0,142.1,0c29.5,0,59,0,88.6,0c0.8,0,1.5-0.7,1.5-1.5c0-48.4,0-96.8,0-145.1
				c0-2,0-3.9,0-5.9c0-0.8-0.7-1.5-1.5-1.5c-47.4,0-94.7,0-142.1,0c-29.5,0-59,0-88.6,0c-0.8,0-1.5,0.7-1.5,1.5
				c0,48.4,0,96.8,0,145.1c0,2,0,3.9,0,5.9c0,1.9,3,1.9,3,0c0-48.4,0-96.8,0-145.1c0-2,0-3.9,0-5.9c-0.5,0.5-1,1-1.5,1.5
				c47.4,0,94.7,0,142.1,0c29.5,0,59,0,88.6,0c-0.5-0.5-1-1-1.5-1.5c0,48.4,0,96.8,0,145.1c0,2,0,3.9,0,5.9c0.5-0.5,1-1,1.5-1.5
				c-47.4,0-94.7,0-142.1,0c-29.5,0-59,0-88.6,0C30.1,236.3,30.1,239.3,32,239.3z"/>
		</g>
	</g>
	<g>
		<g>
			<line fill="none" x1="32" y1="120.2" x2="262.7" y2="120.2"/>
			<path fill="#078D89" d="M32,121.7c47.4,0,94.7,0,142.1,0c29.5,0,59,0,88.6,0c1.9,0,1.9-3,0-3c-47.4,0-94.7,0-142.1,0
				c-29.5,0-59,0-88.6,0C30.1,118.7,30.1,121.7,32,121.7L32,121.7z"/>
		</g>
	</g>
	<g>
		<g>
			<rect x="132.9" y="109.3" fill="none" width="20.4" height="10.8"/>
			<path fill="#078D89" d="M153.3,107.8c-6.8,0-13.6,0-20.4,0c-0.8,0-1.5,0.7-1.5,1.5c0,3.6,0,7.2,0,10.8c0,0.8,0.7,1.5,1.5,1.5
				c6.8,0,13.6,0,20.4,0c0.8,0,1.5-0.7,1.5-1.5c0-3.6,0-7.2,0-10.8c0-1.9-3-1.9-3,0c0,3.6,0,7.2,0,10.8c0.5-0.5,1-1,1.5-1.5
				c-6.8,0-13.6,0-20.4,0c0.5,0.5,1,1,1.5,1.5c0-3.6,0-7.2,0-10.8c-0.5,0.5-1,1-1.5,1.5c6.8,0,13.6,0,20.4,0
				C155.3,110.8,155.3,107.8,153.3,107.8z"/>
		</g>
	</g>
	<g>
		<g>
			<rect x="187.9" y="109.3" fill="none" width="30.3" height="10.8"/>
			<path fill="#078D89" d="M218.2,107.8c-10.1,0-20.2,0-30.3,0c-0.8,0-1.5,0.7-1.5,1.5c0,3.6,0,7.2,0,10.8c0,0.8,0.7,1.5,1.5,1.5
				c10.1,0,20.2,0,30.3,0c0.8,0,1.5-0.7,1.5-1.5c0-3.6,0-7.2,0-10.8c0-1.9-3-1.9-3,0c0,3.6,0,7.2,0,10.8c0.5-0.5,1-1,1.5-1.5
				c-10.1,0-20.2,0-30.3,0c0.5,0.5,1,1,1.5,1.5c0-3.6,0-7.2,0-10.8c-0.5,0.5-1,1-1.5,1.5c10.1,0,20.2,0,30.3,0
				C220.1,110.8,220.1,107.8,218.2,107.8z"/>
		</g>
	</g>
	<g>
		<g>
			<rect x="218.3" y="109.3" fill="none" width="29.5" height="10.8"/>
			<path fill="#078D89" d="M247.7,107.8c-9.8,0-19.6,0-29.5,0c-0.8,0-1.5,0.7-1.5,1.5c0,3.6,0,7.2,0,10.8c0,0.8,0.7,1.5,1.5,1.5
				c9.8,0,19.6,0,29.5,0c0.8,0,1.5-0.7,1.5-1.5c0-3.6,0-7.2,0-10.8c0-1.9-3-1.9-3,0c0,3.6,0,7.2,0,10.8c0.5-0.5,1-1,1.5-1.5
				c-9.8,0-19.6,0-29.5,0c0.5,0.5,1,1,1.5,1.5c0-3.6,0-7.2,0-10.8c-0.5,0.5-1,1-1.5,1.5c9.8,0,19.6,0,29.5,0
				C249.7,110.8,249.7,107.8,247.7,107.8z"/>
		</g>
	</g>
	<g>
		<g>
			<rect x="153.4" y="109.3" fill="none" width="34.7" height="10.8"/>
			<path fill="#078D89" d="M188.1,107.8c-11.6,0-23.2,0-34.7,0c-0.8,0-1.5,0.7-1.5,1.5c0,3.6,0,7.2,0,10.8c0,0.8,0.7,1.5,1.5,1.5
				c11.6,0,23.2,0,34.7,0c0.8,0,1.5-0.7,1.5-1.5c0-3.6,0-7.2,0-10.8c0-1.9-3-1.9-3,0c0,3.6,0,7.2,0,10.8c0.5-0.5,1-1,1.5-1.5
				c-11.6,0-23.2,0-34.7,0c0.5,0.5,1,1,1.5,1.5c0-3.6,0-7.2,0-10.8c-0.5,0.5-1,1-1.5,1.5c11.6,0,23.2,0,34.7,0
				C190.1,110.8,190.1,107.8,188.1,107.8z"/>
		</g>
	</g>
	<g>
		<g>
			<rect x="63.2" y="121.2" fill="none" width="173.2" height="105.6"/>
			<path fill="#666666" d="M236.4,225.3c-49.9,0-99.8,0-149.8,0c-7.8,0-15.6,0-23.4,0c0.5,0.5,1,1,1.5,1.5c0-35.2,0-70.4,0-105.6
				c-0.5,0.5-1,1-1.5,1.5c49.9,0,99.8,0,149.8,0c7.8,0,15.6,0,23.4,0c-0.5-0.5-1-1-1.5-1.5c0,35.2,0,70.4,0,105.6c0,1.9,3,1.9,3,0
				c0-35.2,0-70.4,0-105.6c0-0.8-0.7-1.5-1.5-1.5c-49.9,0-99.8,0-149.8,0c-7.8,0-15.6,0-23.4,0c-0.8,0-1.5,0.7-1.5,1.5
				c0,35.2,0,70.4,0,105.6c0,0.8,0.7,1.5,1.5,1.5c49.9,0,99.8,0,149.8,0c7.8,0,15.6,0,23.4,0C238.3,228.3,238.3,225.3,236.4,225.3z"
				/>
		</g>
	</g>
	<g>
		<g>
			<rect x="71.5" y="126.6" fill="none" width="96" height="54"/>
			<path fill="#666666" d="M167.5,179.2c-32,0-64,0-96,0c0.5,0.5,1,1,1.5,1.5c0-18,0-36,0-54c-0.5,0.5-1,1-1.5,1.5c32,0,64,0,96,0
				c-0.5-0.5-1-1-1.5-1.5c0,18,0,36,0,54c0,1.9,3,1.9,3,0c0-18,0-36,0-54c0-0.8-0.7-1.5-1.5-1.5c-32,0-64,0-96,0
				c-0.8,0-1.5,0.7-1.5,1.5c0,18,0,36,0,54c0,0.8,0.7,1.5,1.5,1.5c32,0,64,0,96,0C169.5,182.2,169.5,179.2,167.5,179.2z"/>
		</g>
	</g>
	<g>
		<g>
			<rect x="71.5" y="188.8" fill="none" width="96" height="31.3"/>
			<path fill="#666666" d="M167.5,218.6c-32,0-64,0-96,0c0.5,0.5,1,1,1.5,1.5c0-10.4,0-20.9,0-31.3c-0.5,0.5-1,1-1.5,1.5
				c32,0,64,0,96,0c-0.5-0.5-1-1-1.5-1.5c0,10.4,0,20.9,0,31.3c0,1.9,3,1.9,3,0c0-10.4,0-20.9,0-31.3c0-0.8-0.7-1.5-1.5-1.5
				c-32,0-64,0-96,0c-0.8,0-1.5,0.7-1.5,1.5c0,10.4,0,20.9,0,31.3c0,0.8,0.7,1.5,1.5,1.5c32,0,64,0,96,0
				C169.5,221.6,169.5,218.6,167.5,218.6z"/>
		</g>
	</g>
	<g>
		<g>
			<rect x="176.5" y="126.6" fill="none" width="52.2" height="93.3"/>
			<path fill="#666666" d="M228.6,218.4c-17.4,0-34.8,0-52.2,0c0.5,0.5,1,1,1.5,1.5c0-31.1,0-62.2,0-93.3c-0.5,0.5-1,1-1.5,1.5
				c17.4,0,34.8,0,52.2,0c-0.5-0.5-1-1-1.5-1.5c0,31.1,0,62.2,0,93.3c0,1.9,3,1.9,3,0c0-31.1,0-62.2,0-93.3c0-0.8-0.7-1.5-1.5-1.5
				c-17.4,0-34.8,0-52.2,0c-0.8,0-1.5,0.7-1.5,1.5c0,31.1,0,62.2,0,93.3c0,0.8,0.7,1.5,1.5,1.5c17.4,0,34.8,0,52.2,0
				C230.6,221.4,230.6,218.4,228.6,218.4z"/>
		</g>
	</g>
	<g>
		<g>
			<line fill="none" x1="71.5" y1="126.6" x2="167.5" y2="180.7"/>
			<path fill="#666666" d="M70.8,127.9c32,18,64,36,96,54c1.7,1,3.2-1.6,1.5-2.6c-32-18-64-36-96-54C70.6,124.4,69.1,127,70.8,127.9
				L70.8,127.9z"/>
		</g>
	</g>
	<g>
		<g>
			<line fill="none" x1="71.5" y1="180.7" x2="167.5" y2="126.6"/>
			<path fill="#666666" d="M72.3,182c32-18,64-36,96-54c1.7-0.9,0.2-3.5-1.5-2.6c-32,18-64,36-96,54C69.1,180.3,70.6,182.9,72.3,182
				L72.3,182z"/>
		</g>
	</g>
	<g>
		<g>
			<line fill="none" x1="176.5" y1="126.6" x2="228.6" y2="219.9"/>
			<path fill="#666666" d="M175.2,127.4c17.4,31.1,34.8,62.2,52.2,93.3c0.9,1.7,3.5,0.2,2.6-1.5c-17.4-31.1-34.8-62.2-52.2-93.3
				C176.8,124.2,174.3,125.7,175.2,127.4L175.2,127.4z"/>
		</g>
	</g>
	<g>
		<g>
			<line fill="none" x1="176.5" y1="219.9" x2="228.6" y2="126.6"/>
			<path fill="#666666" d="M177.8,220.6c17.4-31.1,34.8-62.2,52.2-93.3c0.9-1.7-1.6-3.2-2.6-1.5C210,157,192.6,188,175.2,219.1
				C174.3,220.8,176.8,222.3,177.8,220.6L177.8,220.6z"/>
		</g>
	</g>
	<g>
		<g>
			<line fill="none" x1="71.5" y1="188.8" x2="167.5" y2="220.1"/>
			<path fill="#666666" d="M71.1,190.2c32,10.4,64,20.9,96,31.3c1.8,0.6,2.6-2.3,0.8-2.9c-32-10.4-64-20.9-96-31.3
				C70.1,186.7,69.3,189.6,71.1,190.2L71.1,190.2z"/>
		</g>
	</g>
	<g>
		<g>
			<line fill="none" x1="71.5" y1="220.1" x2="167.5" y2="188.8"/>
			<path fill="#666666" d="M71.9,221.5c32-10.4,64-20.9,96-31.3c1.8-0.6,1-3.5-0.8-2.9c-32,10.4-64,20.9-96,31.3
				C69.3,219.2,70.1,222.1,71.9,221.5L71.9,221.5z"/>
		</g>
	</g>
	<g>
		<g>
			<rect x="294.3" y="135.6" fill="none" width="75.1" height="33.8"/>
			<path fill="#078D89" d="M369.5,167.9c-25,0-50.1,0-75.1,0c0.5,0.5,1,1,1.5,1.5c0-11.3,0-22.5,0-33.8c-0.5,0.5-1,1-1.5,1.5
				c25,0,50.1,0,75.1,0c-0.5-0.5-1-1-1.5-1.5c0,11.3,0,22.5,0,33.8c0,1.9,3,1.9,3,0c0-11.3,0-22.5,0-33.8c0-0.8-0.7-1.5-1.5-1.5
				c-25,0-50.1,0-75.1,0c-0.8,0-1.5,0.7-1.5,1.5c0,11.3,0,22.5,0,33.8c0,0.8,0.7,1.5,1.5,1.5c25,0,50.1,0,75.1,0
				C371.4,170.9,371.4,167.9,369.5,167.9z"/>
		</g>
	</g>
	<g>
		<g>
			<rect x="294.3" y="204.1" fill="none" width="75.1" height="33.8"/>
			<path fill="#078D89" d="M369.5,236.4c-25,0-50.1,0-75.1,0c0.5,0.5,1,1,1.5,1.5c0-11.3,0-22.5,0-33.8c-0.5,0.5-1,1-1.5,1.5
				c25,0,50.1,0,75.1,0c-0.5-0.5-1-1-1.5-1.5c0,11.3,0,22.5,0,33.8c0,1.9,3,1.9,3,0c0-11.3,0-22.5,0-33.8c0-0.8-0.7-1.5-1.5-1.5
				c-25,0-50.1,0-75.1,0c-0.8,0-1.5,0.7-1.5,1.5c0,11.3,0,22.5,0,33.8c0,0.8,0.7,1.5,1.5,1.5c25,0,50.1,0,75.1,0
				C371.4,239.4,371.4,236.4,369.5,236.4z"/>
		</g>
	</g>
	<g>
		<g>
			<rect x="293.7" y="86.8" fill="none" width="75.1" height="33.8"/>
			<path fill="#078D89" d="M368.8,119.1c-25,0-50.1,0-75.1,0c0.5,0.5,1,1,1.5,1.5c0-11.3,0-22.5,0-33.8c-0.5,0.5-1,1-1.5,1.5
				c25,0,50.1,0,75.1,0c-0.5-0.5-1-1-1.5-1.5c0,11.3,0,22.5,0,33.8c0,1.9,3,1.9,3,0c0-11.3,0-22.5,0-33.8c0-0.8-0.7-1.5-1.5-1.5
				c-25,0-50.1,0-75.1,0c-0.8,0-1.5,0.7-1.5,1.5c0,11.3,0,22.5,0,33.8c0,0.8,0.7,1.5,1.5,1.5c25,0,50.1,0,75.1,0
				C370.8,122.1,370.8,119.1,368.8,119.1z"/>
		</g>
	</g>
	<g>
		<circle fill="#078D89" cx="74.4" cy="101.9" r="11.1"/>
	</g>
	<rect x="32" y="86.8" fill="#078D89" width="230.7" height="22.5"/>
	<rect x="32" y="100.3" fill="#078D89" width="100.8" height="19.5"/>
	<rect x="247.8" y="104.1" fill="#078D89" width="14.9" height="16.1"/>
	<rect x="293.7" y="86.8" fill="#078D89" width="75.1" height="33.8"/>
	<rect x="293.7" y="135.2" fill="#078D89" width="75.1" height="33.8"/>
	<rect x="293.7" y="204.6" fill="#078D89" width="75.1" height="33.8"/>
	<rect x="32.8" y="121" opacity="0.5" fill="#666666" width="29.5" height="116"/>
	<rect x="237.2" y="121" opacity="0.5" fill="#666666" width="24.7" height="116"/>
	<rect x="62.4" y="226.9" opacity="0.5" fill="#666666" width="174.9" height="10.1"/>
	<line fill="none" stroke="#5C5C5C" stroke-width="2" x1="257.4" y1="103.1" x2="299.3" y2="103.1"/>
	<line fill="none" stroke="#5C5C5C" stroke-width="2" x1="257.4" y1="151.6" x2="299.3" y2="151.6"/>
	<line fill="none" stroke="#5C5C5C" stroke-width="2" x1="257.4" y1="221.3" x2="299.3" y2="221.3"/>
	<path fill="none" stroke="#5C5C5C" d="M370.1,152.9c14.5-14.7,14.3-38.3-0.3-52.8"/>
	<line fill="none" stroke="#5C5C5C" stroke-width="2" x1="332.7" y1="166.9" x2="332.7" y2="206.4"/>
	<circle fill="#FAFAFA" cx="73.6" cy="103.4" r="11.7"/>
	<rect x="16.3" y="239.4" fill="#625B87" width="21.6" height="34"/>
	<rect x="15.8" y="231.8" fill="#625B87" width="22.5" height="7.2"/>
	<rect x="16.7" y="226.6" fill="#666666" width="20.5" height="4.9"/>
	<path fill="#666666" d="M23.6,227.5c0,0-7.2-5.8,7.1,0c14.4,5.8,0-12.5,0-12.5h-7.1V227.5z"/>
	<path fill="#666666" d="M30.8,227.6c0,0,7.5-5.8-7.4,0c-14.9,5.8,0-12.5,0-12.5h7.4V227.6z"/>
	<rect x="25.1" y="225.3" fill="#666666" width="4.2" height="2.1"/>
	<polygon fill="#078D89" points="23.6,211.1 30.3,206.7 30.3,214.6 23.6,214.6 	"/>
	<polygon fill="#625B87" points="17.6,278.5 36.7,278.5 37.9,274.3 16.3,274.3 	"/>
	<rect x="45.9" y="250.9" fill="#EF5A24" width="21.6" height="34"/>
	<rect x="45.3" y="243.3" fill="#EF5A24" width="22.5" height="7.2"/>
	<rect x="46.3" y="238.2" fill="#838484" width="20.5" height="4.9"/>
	<path fill="#838484" d="M53.2,239.1c0,0-7.2-5.8,7.2,0c14.4,5.8,0-12.5,0-12.5h-7.2V239.1z"/>
	<path fill="#838484" d="M60.3,239.1c0,0,7.5-5.8-7.4,0c-14.9,5.8,0-12.5,0-12.5h7.4V239.1z"/>
	<rect x="54.6" y="236.9" fill="#838484" width="4.2" height="2.1"/>
	<polygon fill="#525353" points="53.1,222.6 59.9,218.3 59.9,226.2 53.1,226.2 	"/>
	<polygon fill="#EF5A24" points="47.1,290.1 66.3,290.1 67.4,285.8 45.9,285.8 	"/>
</g>
</svg>
