<?xml version="1.0" encoding="utf-8"?>
<!-- Generator: Adobe Illustrator 12.0.0, SVG Export Plug-In . SVG Version: 6.00 Build 51448)  -->
<!DOCTYPE svg PUBLIC "-//W3C//DTD SVG 1.1//EN" "http://www.w3.org/Graphics/SVG/1.1/DTD/svg11.dtd" [
	<!ENTITY ns_svg "http://www.w3.org/2000/svg">
	<!ENTITY ns_xlink "http://www.w3.org/1999/xlink">
]>
<svg  version="1.1" id="Ebene_1" xmlns="&ns_svg;" xmlns:xlink="&ns_xlink;" width="379.6" height="298.4"
	 viewBox="0 0 379.6 298.4" overflow="visible" enable-background="new 0 0 379.6 298.4" xml:space="preserve">
<path fill="#CCCDCB" d="M370.7,260.3H8.9c-4.9,0-8.9-4-8.9-8.9V8.9C0,4,4,0,8.9,0h361.7c4.9,0,8.9,4,8.9,8.9v242.5
	C379.6,256.3,375.6,260.3,370.7,260.3z"/>
<path fill="#5E656F" d="M207,229.3h-32c-1,0-1.9-0.8-1.9-1.9l0,0c0-1,0.8-1.9,1.9-1.9h32c1,0,1.9,0.8,1.9,1.9l0,0
	C208.8,228.4,208,229.3,207,229.3z"/>
<path fill="#39414B" d="M379.6,213.9H0c0-43.8,0-87.6,0-131.5c126.5,0,253.1,0.1,379.6,0.1V213.9z"/>
<path fill="#39414B" d="M370.7,0H8.9C4,0,0,4,0,8.9v91.2c0,4.9,4,8.9,8.9,8.9h361.7c4.9,0,8.9-4,8.9-8.9V8.9
	C379.6,4,375.6,0,370.7,0z"/>
<rect x="10.2" y="11.6" fill="#606771" width="359.2" height="191.2"/>
<rect x="111.8" y="284.9" fill="#CCCDCB" width="158.3" height="13.5"/>
<rect x="145.5" y="260.3" fill="#A7AAAF" width="91" height="24.6"/>
<rect x="11.2" y="23.5" fill="#535D69" width="158.7" height="171.4"/>
<rect x="76.3" y="47.7" fill="#EEEEEE" width="52.9" height="4.6"/>
<rect x="50.6" y="68.1" fill="#EEEEEE" width="42.3" height="4.6"/>
<rect x="21.4" y="79.1" fill="#078E8A" width="42.3" height="4.6"/>
<rect x="27.9" y="86.5" fill="#EEEEEE" width="52.2" height="4.6"/>
<rect x="50.2" y="97.2" fill="#EEEEEE" width="52.2" height="4.6"/>
<rect x="27.9" y="110.5" fill="#078E8A" width="52.2" height="4.6"/>
<rect x="40.7" y="117.1" fill="#EEEEEE" width="42" height="4.6"/>
<rect x="35.2" y="135.5" fill="#EEEEEE" width="52.4" height="4.6"/>
<rect x="17" y="160" fill="#EEEEEE" width="42" height="4.6"/>
<rect x="44.4" y="178.4" fill="#EEEEEE" width="50.3" height="4.6"/>
<rect x="20.2" y="185.3" fill="#EEEEEE" width="42" height="4.6"/>
<rect x="17" y="178.4" fill="#078E8A" width="23.2" height="4.6"/>
<rect x="38.5" y="148.8" fill="#EEEEEE" width="63.5" height="4.6"/>
<rect x="38.6" y="141.9" fill="#078E8A" width="102.8" height="4.6"/>
<rect x="20.5" y="97.2" fill="#EEEEEE" width="24.4" height="4.6"/>
<rect x="97.4" y="68.1" fill="#EEEEEE" width="63.5" height="4.6"/>
<rect x="55.1" y="54.4" fill="#078E8A" width="35.2" height="4.6"/>
<rect x="29.4" y="47.7" fill="#EEEEEE" width="42.3" height="4.6"/>
<rect x="21.4" y="36.3" fill="#EEEEEE" width="27.6" height="4.6"/>
<rect x="21.4" y="29.6" fill="#078E8A" width="27.6" height="4.6"/>
<path fill="#078E8A" stroke="#FFFFFF" stroke-width="3" stroke-miterlimit="10" d="M289.4,127.5c0,4.7,0,9.4,0,14.1
	c-2.1,1.3-4.5,1.8-6.8,2.6c-7.2,2.6-10,9.3-6.6,16.2c0.9,1.8,1.7,3.6,2.6,5.4c0.4,0.9,0.5,1.5-0.3,2.2c-2.9,2.8-5.7,5.6-8.5,8.5
	c-0.7,0.7-1.2,0.6-2,0.2c-2.1-1.1-4.3-2.1-6.4-3.1c-6.1-2.7-12.7,0.2-15,6.4c-0.8,2.1-1.6,4.2-2.3,6.4c-0.3,1-0.8,1.4-1.9,1.4
	c-3.9-0.1-7.7-0.1-11.6,0c-1.1,0-1.6-0.3-1.9-1.4c-0.7-2.1-1.4-4.3-2.2-6.4c-2.4-6.4-9.1-9.1-15.3-6.2c-2,1-4.1,1.9-6.1,2.9
	c-0.8,0.4-1.4,0.4-2-0.3c-2.8-2.9-5.6-5.7-8.5-8.5c-0.8-0.7-0.7-1.3-0.3-2.2c1-2,2-4,2.9-6.1c2.8-6.1,0-12.8-6.2-15.2
	c-2.2-0.8-4.4-1.6-6.6-2.3c-0.9-0.3-1.2-0.8-1.2-1.7c0-4,0-8,0-12c0-0.9,0.4-1.4,1.2-1.6c2.1-0.7,4.1-1.4,6.2-2.2
	c6.7-2.5,9.5-9.2,6.4-15.7c-0.9-1.9-1.7-3.8-2.7-5.6c-0.5-1-0.5-1.6,0.3-2.5c2.8-2.6,5.5-5.3,8.1-8.1c0.9-0.9,1.6-1,2.6-0.4
	c1.9,1,3.8,1.9,5.7,2.8c6.2,2.9,13,0.2,15.3-6.2c0.8-2.1,1.5-4.1,2.2-6.2c0.3-1,0.8-1.5,2-1.5c3.9,0.1,7.7,0.1,11.6,0
	c1.1,0,1.6,0.4,1.9,1.4c0.7,2.1,1.5,4.1,2.2,6.2c2.4,6.5,8.9,9.3,15.2,6.4c2.1-0.9,4.2-1.9,6.3-3c0.8-0.4,1.3-0.4,2,0.3
	c2.8,2.9,5.6,5.7,8.5,8.5c0.7,0.6,0.8,1.2,0.3,2c-1.1,2.1-2,4.2-3,6.3c-2.8,6.2,0,12.9,6.4,15.3
	C284.5,125.6,287.1,126.2,289.4,127.5z M217,134.6c0,10.6,8.7,19.3,19.3,19.4c10.7,0.1,19.6-8.9,19.5-19.6
	c0-10.7-8.9-19.5-19.5-19.4C225.7,115.1,217,123.9,217,134.6z"/>
<path fill="#078E8A" stroke="#FFFFFF" stroke-width="3" stroke-miterlimit="10" d="M341,70.1c-1.3,2.8-2.5,5.6-3.8,8.3
	c-1.6,0.2-3.1-0.1-4.7-0.3c-5-0.4-8.4,2.8-8.2,7.8c0,1.3,0,2.6,0.1,3.9c0,0.6-0.1,1-0.8,1.2c-2.4,0.9-4.9,1.8-7.3,2.7
	c-0.6,0.2-0.9,0.1-1.2-0.4c-1-1.2-2-2.4-3-3.5c-2.9-3.2-7.5-3.3-10.6-0.2c-1,1-2.1,2.1-3,3.2c-0.5,0.5-0.8,0.6-1.5,0.3
	c-2.3-1.1-4.6-2.1-6.9-3.1c-0.7-0.3-0.8-0.6-0.8-1.3c0.2-1.5,0.3-2.9,0.4-4.4c0.3-4.4-3-7.8-7.4-7.8c-1.5,0-2.9,0-4.4,0.1
	c-0.6,0-0.9-0.1-1.1-0.7c-0.9-2.4-1.8-4.9-2.7-7.3c-0.3-0.6-0.1-1,0.4-1.4c1.1-0.9,2.3-1.9,3.4-2.8c3.3-2.8,3.5-7.6,0.4-10.6
	c-1.1-1.1-2.1-2.1-3.3-3.1c-0.5-0.4-0.5-0.8-0.3-1.3c1.1-2.4,2.2-4.7,3.2-7.1c0.2-0.6,0.6-0.7,1.2-0.6c1.4,0.2,2.8,0.3,4.2,0.4
	c4.6,0.4,8.1-2.9,8-7.6c0-1.3,0-2.7-0.1-4c0-0.7,0.1-1.1,0.9-1.4c2.3-0.8,4.6-1.7,6.9-2.6c0.8-0.3,1.2-0.1,1.7,0.5
	c0.8,1.1,1.8,2.1,2.6,3.2c2.9,3.4,7.6,3.6,10.7,0.4c1-1,2-2,2.9-3.1c0.5-0.5,0.9-0.7,1.6-0.4c2.3,1.1,4.5,2.1,6.9,3.1
	c0.7,0.3,0.8,0.6,0.7,1.3c-0.2,1.4-0.2,2.8-0.4,4.2c-0.3,4.4,2.8,7.9,7.3,7.9c1.5,0,3,0,4.5-0.1c0.6,0,0.9,0.1,1.1,0.7
	c0.9,2.4,1.8,4.9,2.7,7.3c0.2,0.6,0.1,0.9-0.3,1.3c-1.2,0.9-2.3,1.9-3.4,2.9c-3.3,2.9-3.5,7.6-0.3,10.7
	C338.6,67.7,340,68.7,341,70.1z M296.3,55c-2.8,6.2,0,13.7,6.2,16.6c6.3,2.9,13.9,0,16.8-6.4c2.8-6.3,0-13.9-6.3-16.7
	C306.7,45.8,299.2,48.7,296.3,55z"/>
</svg>
